<svg width="2299" height="485" viewBox="0 0 2299 485" fill="none" xmlns="http://www.w3.org/2000/svg">
<path d="M1232.58 204.86V479.942H10.5615V96.9531C10.5615 96.9531 147.85 213.268 534.937 258.839C922.023 304.41 1232.58 204.86 1232.58 204.86Z" fill="url(#paint0_linear)"/>
<g filter="url(#filter0_d)">
<path d="M2288.72 61.9922V479.942C2288.72 479.942 1608.71 479.942 1163.85 479.942C718.988 479.942 10.4592 479.942 10.4592 479.942V411.209C10.4592 411.209 139.655 434.148 426.408 434.148C713.16 434.148 1068.8 279.467 1217.34 203.27C1409.56 104.666 1734.13 15.6818 1942.1 15.6819C2150.07 15.682 2288.72 61.9922 2288.72 61.9922Z" fill="#0F0F0F"/>
</g>
<defs>
<filter id="filter0_d" x="0.459229" y="0.681885" width="2298.26" height="484.26" filterUnits="userSpaceOnUse" color-interpolation-filters="sRGB">
<feFlood flood-opacity="0" result="BackgroundImageFix"/>
<feColorMatrix in="SourceAlpha" type="matrix" values="0 0 0 0 0 0 0 0 0 0 0 0 0 0 0 0 0 0 127 0"/>
<feOffset dy="-5"/>
<feGaussianBlur stdDeviation="5"/>
<feColorMatrix type="matrix" values="0 0 0 0 0 0 0 0 0 0 0 0 0 0 0 0 0 0 0.25 0"/>
<feBlend mode="normal" in2="BackgroundImageFix" result="effect1_dropShadow"/>
<feBlend mode="normal" in="SourceGraphic" in2="effect1_dropShadow" result="shape"/>
</filter>
<linearGradient id="paint0_linear" x1="1342.48" y1="400.988" x2="57.3344" y2="188.463" gradientUnits="userSpaceOnUse">
<stop stop-color="#EDDD1D"/>
<stop offset="0.510417" stop-color="#8ED825"/>
<stop offset="1" stop-color="#32EBFF"/>
</linearGradient>
</defs>
</svg>
