<?xml version="1.0" encoding="utf-8"?>
<!-- Generator: Adobe Illustrator 16.0.3, SVG Export Plug-In . SVG Version: 6.00 Build 0)  -->
<!DOCTYPE svg PUBLIC "-//W3C//DTD SVG 1.1//EN" "http://www.w3.org/Graphics/SVG/1.1/DTD/svg11.dtd">
<svg version="1.1" id="Capa_1" xmlns="http://www.w3.org/2000/svg" xmlns:xlink="http://www.w3.org/1999/xlink" x="0px" y="0px"
	 width="601.47px" height="568.471px" viewBox="0 0 601.47 568.471" enable-background="new 0 0 601.47 568.471"
	 xml:space="preserve">
<g>
	<defs>
		<rect id="SVGID_1_" x="11.395" y="7.13" width="583.926" height="544.766"/>
	</defs>
	<clipPath id="SVGID_2_">
		<use xlink:href="#SVGID_1_"  overflow="visible"/>
	</clipPath>
	<path clip-path="url(#SVGID_2_)" fill="#0F0F0F" d="M145.465,514.207c-6.194,11.615-14.746,20.797-25.653,27.555
		c-10.91,6.756-23.191,10.135-36.843,10.135c-13.653,0-25.937-3.379-36.843-10.135c-10.91-6.758-19.425-15.939-25.548-27.555
		c-6.123-11.613-9.183-24.385-9.183-38.32c0-13.934,3.06-26.711,9.183-38.32c6.123-11.611,14.638-20.795,25.548-27.555
		c10.906-6.756,23.189-10.133,36.843-10.133c13.651,0,25.933,3.377,36.843,10.133c10.907,6.76,19.459,15.943,25.653,27.555
		c6.192,11.609,9.29,24.387,9.29,38.32C154.755,489.822,151.657,502.593,145.465,514.207 M121.606,450.234
		c-3.799-7.67-9.078-13.756-15.834-18.264c-6.756-4.504-14.357-6.758-22.804-6.758c-8.587,0-16.225,2.219-22.907,6.65
		c-6.688,4.436-11.897,10.523-15.623,18.266c-3.732,7.742-5.597,16.33-5.597,25.758c0,9.432,1.864,18.021,5.597,25.758
		c3.726,7.742,8.936,13.828,15.623,18.264c6.683,4.436,14.32,6.65,22.907,6.65c8.446,0,16.048-2.25,22.804-6.756
		c6.756-4.504,12.035-10.59,15.834-18.264c3.801-7.668,5.701-16.221,5.701-25.652C127.308,466.458,125.407,457.908,121.606,450.234"
		/>
	<path clip-path="url(#SVGID_2_)" fill="#0F0F0F" d="M293.261,530.359c1.689,2.254,2.534,4.855,2.534,7.813
		c0,3.662-1.341,6.688-4.013,9.08c-2.674,2.395-5.562,3.588-8.655,3.588c-4.085,0-7.533-1.828-10.347-5.49l-37.582-50.039
		l-36.527,49.617c-2.816,3.943-6.334,5.912-10.557,5.912c-3.098,0-5.772-1.125-8.021-3.377c-2.254-2.25-3.38-4.857-3.38-7.813
		c0-3.096,1.056-5.98,3.167-8.656l40.751-55.107l-40.751-54.051c-1.83-2.25-2.744-4.785-2.744-7.6c0-3.52,1.336-6.547,4.012-9.08
		c2.672-2.533,5.627-3.801,8.868-3.801c4.08,0,7.528,1.83,10.345,5.49l37.16,49.406l36.316-48.35
		c1.404-1.971,3.023-3.482,4.855-4.539c1.828-1.057,3.658-1.584,5.49-1.584c3.094,0,5.839,1.232,8.234,3.695
		c2.391,2.463,3.588,5.174,3.588,8.127c0,2.676-0.916,5.211-2.744,7.602l-41.172,54.26L293.261,530.359z"/>
	<path clip-path="url(#SVGID_2_)" fill="#0F0F0F" d="M456.96,538.382c0,3.66-1.196,6.65-3.588,8.975
		c-2.396,2.322-5.141,3.482-8.235,3.482c-2.533,0-4.821-0.775-6.863-2.322c-2.041-1.549-3.623-3.658-4.748-6.334l-10.979-25.549
		h-62.921l-10.977,25.76c-0.987,2.676-2.502,4.752-4.54,6.229c-2.041,1.477-4.259,2.217-6.65,2.217
		c-3.663,0-6.438-0.986-8.342-2.957c-1.901-1.967-2.85-4.643-2.85-8.021c0-1.268,0.211-2.604,0.633-4.012l52.573-126.26
		c1.124-2.814,2.815-4.996,5.067-6.545c2.251-1.547,4.785-2.18,7.604-1.9c2.533,0,4.888,0.74,7.07,2.219
		c2.182,1.477,3.765,3.555,4.751,6.227l51.941,123.727C456.606,535.146,456.96,536.833,456.96,538.382 M369.973,492.355h42.229
		l-21.328-49.406L369.973,492.355z"/>
	<path clip-path="url(#SVGID_2_)" fill="#0F0F0F" d="M514.033,548.097c-7.885-2.535-15.275-6.826-22.17-12.881
		c-3.801-3.377-5.699-7.107-5.699-11.191c0-3.234,1.193-6.086,3.59-8.551c2.391-2.461,5.277-3.693,8.656-3.693
		c2.671,0,5.067,0.842,7.177,2.533c5.628,4.643,11.119,8.021,16.471,10.135c5.347,2.109,11.681,3.166,19.002,3.166
		c7.88,0,14.675-1.756,20.374-5.279c5.701-3.514,8.551-7.883,8.551-13.088c0-6.338-2.817-11.299-8.445-14.885
		c-5.631-3.59-14.568-6.301-26.813-8.131c-30.827-4.504-46.238-18.859-46.238-43.07c0-8.871,2.319-16.576,6.966-23.121
		c4.646-6.545,10.979-11.541,19.001-14.99c8.025-3.447,16.961-5.174,26.816-5.174c8.866,0,17.208,1.342,25.02,4.012
		c7.811,2.676,14.321,6.197,19.53,10.559c4.08,3.24,6.124,6.965,6.124,11.188c0,3.242-1.198,6.092-3.59,8.553
		c-2.396,2.465-5.21,3.695-8.446,3.695c-2.112,0-4.011-0.635-5.702-1.9c-3.66-2.957-8.762-5.664-15.307-8.129
		c-6.544-2.461-12.423-3.695-17.629-3.695c-8.868,0-15.731,1.656-20.588,4.961c-4.854,3.311-7.281,7.639-7.281,12.986
		c0,6.053,2.496,10.631,7.495,13.725c4.993,3.098,12.842,5.629,23.539,7.602c12.104,2.107,21.78,4.82,29.033,8.127
		c7.248,3.309,12.699,7.813,16.363,13.514c3.658,5.701,5.488,13.268,5.488,22.695c0,8.867-2.499,16.646-7.495,23.332
		s-11.648,11.822-19.953,15.412c-8.306,3.59-17.242,5.385-26.813,5.385C530.925,551.896,521.916,550.628,514.033,548.097"/>
</g>
<linearGradient id="SVGID_3_" gradientUnits="userSpaceOnUse" x1="202.4927" y1="262.6069" x2="432.1789" y2="32.9208">
	<stop  offset="0" style="stop-color:#32EBFF"/>
	<stop  offset="0.5" style="stop-color:#8ED825"/>
	<stop  offset="1" style="stop-color:#EDDD1D"/>
</linearGradient>
<path fill="url(#SVGID_3_)" d="M433.715,237.375c0.289,7.43-0.41,17.44-4.271,28.04c-0.479-0.29-0.979-0.54-1.52-0.74
	c-4.73-1.73-9.971,0.71-11.69,5.45c-2.49,6.82-8.27,14.01-16.27,20.25c-9.03,7.029-26.94,15.01-40.69,19.79
	c-27.54,9.58-50.41,14.54-79.26,9.649c-27.99-4.75-50.94-23.99-55.82-46.81c-1.05-4.93-5.89-8.07-10.82-7.02
	c-0.279,0.06-0.54,0.18-0.8,0.26l-4.55-13.62c7.94-2.95,15.92-5.71,23.94-8.38l-3.5-18.03c-8.78,2.88-17.521,5.88-26.2,9.11
	l-3.971-11.91c4.19-1.71,6.57-6.29,5.36-10.78l-29.83-110.42c-2.95-10.9-4.14-22.36-3.28-31.43c0.681-7.18,7.24-15.14,15.25-18.51
	c7.32-3.08,17.45-3.38,23.921,5.03c6.079,7.91,8.71,21.16,11.029,32.84c0.32,1.59,0.63,3.15,0.94,4.66
	c5.75,27.87,10.83,56.08,15.33,84.35h18.439c-0.609-3.81-1.189-7.63-1.81-11.44c3.42-4.38,8.32-9.98,14.649-15.53
	c0.091,0.13,0.141,0.26,0.23,0.39c2.99,4.06,8.7,4.93,12.75,1.96c23.4-17.18,55.76-22,82.42-12.27c2.55,0.93,5.37,0.68,7.71-0.68
	c2.34-1.35,3.95-3.68,4.41-6.35c1.14-6.67,2.189-13.43,3.25-20.25c2.78-17.96,5.66-36.53,10.4-54.12
	c0.359-1.33,0.729-2.75,1.109-4.23c1.99-7.69,4.72-18.21,8.54-23.58c3.33-4.69,8.76-7.68,13.58-7.68c0.73,0,1.45,0.07,2.14,0.21
	c15.101,3.06,17.591,4.96,20.521,15.62c2.96,10.83-0.72,27.5-3.68,40.9c-0.671,3.01-1.311,5.91-1.851,8.62
	c-2.56,12.72-5.68,25.8-8.7,38.44c-3.06,12.8-6.22,26.03-8.85,39.07c-0.99,4.94,2.21,9.75,7.15,10.74
	c0.02,0.01,0.05,0.01,0.079,0.01l-2.89,14.33c-4.33-0.75-9.46-1.02-15.43-0.68l5.46,18.09c6.16,0.06,13.96,1.08,15.84,5.6
	c1.2,2.91-0.58,7.59-4.06,10.65c-2.69,2.37-6.181,4.06-9.91,5.5l-1.96,19.98c7.449-2.38,16.64-5.37,23.93-11.8
	C431.654,239.625,432.734,238.524,433.715,237.375z"/>
<g>
	<defs>
		<rect id="SVGID_4_" x="11.395" y="7.13" width="583.926" height="544.766"/>
	</defs>
	<clipPath id="SVGID_5_">
		<use xlink:href="#SVGID_4_"  overflow="visible"/>
	</clipPath>
	<path clip-path="url(#SVGID_5_)" fill="#0F0F0F" d="M285.597,287.605c-7.836,0-15.336-1.84-22.071-6.77
		c-13.897-10.172-16.167-28.211-17.668-40.148c-0.038-0.303-0.076-0.605-0.115-0.91c-23.22,7.15-46.097,15.537-68.575,25.148
		c-4.621,1.986-9.99-0.165-11.97-4.799c-1.981-4.633,0.168-9.991,4.799-11.971c24.021-10.272,48.495-19.185,73.339-26.717
		c-5.771-42.37-13.033-84.88-21.637-126.633c-0.313-1.512-0.624-3.071-0.939-4.665c-2.324-11.682-4.957-24.925-11.039-32.836
		c-6.469-8.411-16.592-8.113-23.916-5.034c-8.008,3.374-14.565,11.334-15.25,18.518c-0.865,9.064,0.328,20.52,3.277,31.427
		l29.834,110.421c1.314,4.862-1.563,9.87-6.425,11.183c-4.873,1.307-9.868-1.562-11.185-6.424l-29.834-110.421
		c-3.547-13.128-4.905-26.595-3.826-37.917c1.318-13.81,12.145-27.625,26.332-33.597c17.08-7.187,34.916-2.975,45.451,10.723
		c8.683,11.293,11.892,27.432,14.47,40.403c0.308,1.547,0.61,3.066,0.913,4.537c8.507,41.288,15.717,83.298,21.484,125.198
		c45.273-12.444,91.72-20.36,138.881-23.635c26.124-1.819,35.853,8.061,39.415,16.66c4.201,10.138,0.563,23.015-8.848,31.313
		c-7.39,6.514-16.731,9.496-24.236,11.894l-93.081,29.704C303.971,285.197,294.563,287.605,285.597,287.605 M263.47,234.578
		c0.162,1.279,0.326,2.555,0.485,3.834c1.472,11.686,3.367,22.598,10.345,27.705c7.857,5.75,20.666,2.804,33.33-1.234l93.08-29.704
		c6.489-2.075,13.202-4.217,17.722-8.202c3.479-3.066,5.263-7.744,4.06-10.646c-2.518-6.077-15.732-5.828-21.302-5.448
		C354.402,214.13,308.342,222.068,263.47,234.578"/>
	<path clip-path="url(#SVGID_5_)" fill="#0F0F0F" d="M421.241,179.158c-0.598,0-1.201-0.059-1.81-0.181
		c-4.937-0.995-8.135-5.801-7.143-10.741c2.626-13.041,5.786-26.277,8.843-39.074c3.018-12.642,6.141-25.714,8.698-38.438
		c0.547-2.712,1.186-5.606,1.853-8.619c2.962-13.398,6.646-30.073,3.677-40.901c-2.927-10.665-5.418-12.563-20.511-15.622
		c-5.272-1.081-11.892,2.072-15.729,7.472c-3.814,5.366-6.543,15.891-8.535,23.579c-0.385,1.478-0.751,2.898-1.109,4.229
		c-4.738,17.594-7.618,36.16-10.405,54.118c-1.058,6.82-2.107,13.587-3.247,20.256c-0.456,2.667-2.071,4.993-4.413,6.352
		c-2.338,1.359-5.16,1.606-7.702,0.679c-26.666-9.728-59.02-4.914-82.424,12.264c-4.053,2.977-9.764,2.101-12.749-1.96
		c-2.979-4.061-2.103-9.769,1.96-12.749c25.625-18.798,58.862-25.279,89.021-17.864c0.517-3.244,1.022-6.504,1.529-9.774
		c2.86-18.442,5.82-37.509,10.815-56.066c0.346-1.279,0.7-2.643,1.065-4.061c2.479-9.566,5.563-21.467,11.327-29.572
		c8.071-11.354,21.82-17.301,34.219-14.782c16.5,3.346,28.628,7.362,34.476,28.676c4.166,15.179-0.061,34.3-3.455,49.663
		c-0.642,2.896-1.255,5.675-1.779,8.281c-2.626,13.041-5.784,26.276-8.843,39.073c-3.019,12.643-6.141,25.715-8.698,38.438
		C429.301,176.166,425.493,179.158,421.241,179.158"/>
	<path clip-path="url(#SVGID_5_)" fill="#0F0F0F" d="M301.955,339.951c-7.995,0-16.259-0.674-24.976-2.148
		c-35.182-5.965-64.217-31.045-70.608-60.99c-1.052-4.924,2.089-9.771,7.017-10.823c4.928-1.053,9.771,2.087,10.821,7.017
		c4.871,22.816,27.824,42.064,55.817,46.809c28.851,4.891,51.715-0.068,79.259-9.65c13.747-4.781,31.656-12.756,40.689-19.793
		c8.001-6.232,13.777-13.427,16.267-20.252c1.725-4.732,6.967-7.17,11.692-5.443c4.733,1.727,7.168,6.963,5.443,11.693
		c-4.675,12.814-14.648,22.512-22.189,28.389c-14.71,11.459-40.822,20.865-45.909,22.633
		C343.719,334.892,323.848,339.951,301.955,339.951"/>
</g>
</svg>
