<svg width="522" height="328" viewBox="0 0 522 328" fill="none" xmlns="http://www.w3.org/2000/svg">
<path d="M258.628 21.2208C260.899 21.2208 262.741 19.3805 262.741 17.1104C262.741 14.8403 260.899 13 258.628 13C256.357 13 254.516 14.8403 254.516 17.1104C254.516 19.3805 256.357 21.2208 258.628 21.2208Z" fill="#F2F2F2"/>
<path d="M258.628 37.6024C260.899 37.6024 262.741 35.7621 262.741 33.492C262.741 31.2219 260.899 29.3816 258.628 29.3816C256.357 29.3816 254.516 31.2219 254.516 33.492C254.516 35.7621 256.357 37.6024 258.628 37.6024Z" fill="#F2F2F2"/>
<path d="M275.798 21.2208C278.069 21.2208 279.91 19.3805 279.91 17.1104C279.91 14.8403 278.069 13 275.798 13C273.527 13 271.686 14.8403 271.686 17.1104C271.686 19.3805 273.527 21.2208 275.798 21.2208Z" fill="#F2F2F2"/>
<path d="M275.798 37.6024C278.069 37.6024 279.91 35.7621 279.91 33.492C279.91 31.2219 278.069 29.3816 275.798 29.3816C273.527 29.3816 271.686 31.2219 271.686 33.492C271.686 35.7621 273.527 37.6024 275.798 37.6024Z" fill="#F2F2F2"/>
<path d="M292.968 21.2208C295.239 21.2208 297.08 19.3805 297.08 17.1104C297.08 14.8403 295.239 13 292.968 13C290.697 13 288.855 14.8403 288.855 17.1104C288.855 19.3805 290.697 21.2208 292.968 21.2208Z" fill="#F2F2F2"/>
<path d="M292.968 37.6024C295.239 37.6024 297.08 35.7621 297.08 33.492C297.08 31.2219 295.239 29.3816 292.968 29.3816C290.697 29.3816 288.855 31.2219 288.855 33.492C288.855 35.7621 290.697 37.6024 292.968 37.6024Z" fill="#F2F2F2"/>
<path d="M292.968 53.984C295.239 53.984 297.08 52.1437 297.08 49.8736C297.08 47.6035 295.239 45.7632 292.968 45.7632C290.697 45.7632 288.855 47.6035 288.855 49.8736C288.855 52.1437 290.697 53.984 292.968 53.984Z" fill="#F2F2F2"/>
<path d="M292.968 70.3657C295.239 70.3657 297.08 68.5254 297.08 66.2553C297.08 63.9852 295.239 62.1449 292.968 62.1449C290.697 62.1449 288.855 63.9852 288.855 66.2553C288.855 68.5254 290.697 70.3657 292.968 70.3657Z" fill="#F2F2F2"/>
<path d="M310.138 21.2208C312.409 21.2208 314.25 19.3805 314.25 17.1104C314.25 14.8403 312.409 13 310.138 13C307.867 13 306.025 14.8403 306.025 17.1104C306.025 19.3805 307.867 21.2208 310.138 21.2208Z" fill="#F2F2F2"/>
<path d="M310.138 37.6024C312.409 37.6024 314.25 35.7621 314.25 33.492C314.25 31.2219 312.409 29.3816 310.138 29.3816C307.867 29.3816 306.025 31.2219 306.025 33.492C306.025 35.7621 307.867 37.6024 310.138 37.6024Z" fill="#F2F2F2"/>
<path d="M310.138 53.984C312.409 53.984 314.25 52.1437 314.25 49.8736C314.25 47.6035 312.409 45.7632 310.138 45.7632C307.867 45.7632 306.025 47.6035 306.025 49.8736C306.025 52.1437 307.867 53.984 310.138 53.984Z" fill="#F2F2F2"/>
<path d="M310.138 70.3657C312.409 70.3657 314.25 68.5254 314.25 66.2553C314.25 63.9852 312.409 62.1449 310.138 62.1449C307.867 62.1449 306.025 63.9852 306.025 66.2553C306.025 68.5254 307.867 70.3657 310.138 70.3657Z" fill="#F2F2F2"/>
<path d="M327.308 21.2208C329.58 21.2208 331.421 19.3805 331.421 17.1104C331.421 14.8403 329.58 13 327.308 13C325.037 13 323.196 14.8403 323.196 17.1104C323.196 19.3805 325.037 21.2208 327.308 21.2208Z" fill="#F2F2F2"/>
<path d="M327.308 37.6024C329.58 37.6024 331.421 35.7621 331.421 33.492C331.421 31.2219 329.58 29.3816 327.308 29.3816C325.037 29.3816 323.196 31.2219 323.196 33.492C323.196 35.7621 325.037 37.6024 327.308 37.6024Z" fill="#F2F2F2"/>
<path d="M344.478 21.2208C346.749 21.2208 348.591 19.3805 348.591 17.1104C348.591 14.8403 346.749 13 344.478 13C342.207 13 340.366 14.8403 340.366 17.1104C340.366 19.3805 342.207 21.2208 344.478 21.2208Z" fill="#F2F2F2"/>
<path d="M344.478 37.6024C346.749 37.6024 348.591 35.7621 348.591 33.492C348.591 31.2219 346.749 29.3816 344.478 29.3816C342.207 29.3816 340.366 31.2219 340.366 33.492C340.366 35.7621 342.207 37.6024 344.478 37.6024Z" fill="#F2F2F2"/>
<path d="M470.024 229.905H439.494C439.494 230.783 408.028 231.494 408.028 231.494C407.534 231.866 407.084 232.293 406.686 232.766C405.491 234.19 404.838 235.991 404.842 237.85V239.122C404.843 241.229 405.68 243.249 407.171 244.739C408.661 246.229 410.683 247.066 412.791 247.067H470.024C472.132 247.065 474.153 246.227 475.643 244.738C477.133 243.248 477.972 241.228 477.973 239.122V237.85C477.97 235.744 477.132 233.725 475.642 232.236C474.152 230.746 472.132 229.908 470.024 229.905V229.905Z" fill="#3F3D56"/>
<path d="M445.856 246.751H437.589V300.142H445.856V246.751Z" fill="#3F3D56"/>
<path d="M469.385 299.852C469.385 300.744 456.858 300.197 441.405 300.197C425.951 300.197 413.424 300.744 413.424 299.852C413.424 298.959 425.951 291.879 441.405 291.879C456.858 291.879 469.385 298.959 469.385 299.852Z" fill="#3F3D56"/>
<path d="M400.063 292.829L392.267 292.829L388.558 262.772L400.065 262.773L400.063 292.829Z" fill="#FFB8B8"/>
<path d="M386.698 290.602H401.734V300.064H377.231C377.231 297.555 378.228 295.148 380.004 293.374C381.779 291.599 384.187 290.602 386.698 290.602V290.602Z" fill="#2F2E41"/>
<path d="M387.893 288.48L380.455 286.147L385.918 256.359L396.897 259.803L387.893 288.48Z" fill="#FFB8B8"/>
<path d="M375.808 282.356L390.154 286.856L387.32 295.884L363.941 288.551C364.314 287.365 364.916 286.265 365.714 285.312C366.511 284.359 367.489 283.572 368.591 282.997C369.693 282.422 370.898 282.069 372.136 281.959C373.374 281.849 374.622 281.984 375.808 282.356V282.356Z" fill="#2F2E41"/>
<path d="M449.145 224.695C448.965 223.181 448.641 221.687 448.178 220.233L446.722 218.403L442.932 213.648L442.767 213.655C442.486 213.668 441.323 213.731 439.523 213.871H439.504C438.391 213.96 437.03 214.074 435.485 214.22C435.078 214.265 434.652 214.303 434.213 214.348V220.983H442.162C442.549 220.984 442.922 221.125 443.212 221.38C443.502 221.634 443.689 221.986 443.739 222.369C443.746 222.439 443.752 222.502 443.752 222.572C443.752 222.994 443.584 223.398 443.286 223.696C442.988 223.994 442.584 224.161 442.162 224.161H395.994C395.406 224.552 394.841 224.976 394.302 225.433C392.676 226.691 391.504 228.445 390.964 230.428C388.268 242.276 383.352 264.37 381.902 270.859C381.797 271.348 381.821 271.856 381.971 272.333C382.122 272.81 382.394 273.239 382.76 273.58C383.031 273.832 383.349 274.028 383.695 274.158L389.431 276.306C389.667 276.394 389.913 276.451 390.163 276.478C390.194 276.478 390.22 276.484 390.252 276.484C390.311 276.49 390.37 276.492 390.43 276.491C391.01 276.488 391.575 276.311 392.053 275.982C392.531 275.654 392.898 275.188 393.107 274.647L397.635 262.774L404.611 244.469L407.371 237.229C410.569 237.979 437.406 243.916 446.391 234.35C447.278 233.408 447.977 232.305 448.452 231.102C449.208 229.056 449.446 226.855 449.145 224.695Z" fill="#2F2E41"/>
<path d="M456.928 226.424C456.789 225.858 456.63 225.274 456.445 224.683L451.199 218.098L451.034 218.104C450.703 218.123 449.132 218.206 446.722 218.403C443.988 218.632 440.165 219 435.873 219.579C435.746 219.591 435.612 219.61 435.485 219.629C435.065 219.687 434.639 219.744 434.213 219.807V220.983H442.162C442.549 220.984 442.922 221.125 443.212 221.38C443.502 221.634 443.689 221.986 443.739 222.369C443.746 222.439 443.752 222.502 443.752 222.572C443.752 222.994 443.584 223.398 443.286 223.696C442.988 223.994 442.584 224.161 442.162 224.161H414.067C412.84 224.562 411.657 224.981 410.525 225.433C404.586 227.784 400.14 230.867 399.231 234.878C398.926 236.225 398.589 237.706 398.233 239.282C396.91 245.143 395.301 252.319 393.845 258.84V258.846C393.546 260.194 393.247 261.503 392.961 262.774C391.746 268.241 390.716 272.874 390.169 275.308C390.156 275.378 390.144 275.442 390.131 275.512V275.525C390.067 276.017 390.129 276.517 390.309 276.98L390.315 276.986V276.993C390.49 277.436 390.775 277.827 391.142 278.13C391.388 278.333 391.665 278.494 391.962 278.607L397.698 280.756C398.018 280.875 398.356 280.937 398.697 280.94C399.175 280.941 399.645 280.821 400.064 280.59C400.665 280.265 401.13 279.735 401.374 279.097L413.724 246.706L415.638 241.679C418.836 242.429 445.673 248.359 454.658 238.799C456.433 236.879 457.446 234.377 457.507 231.763C457.57 229.965 457.375 228.167 456.928 226.424V226.424Z" fill="#2F2E41"/>
<path d="M456.223 170.351C456.121 170.23 456.013 170.11 455.898 169.995C454.205 168.215 452.113 166.862 449.795 166.045C447.477 165.229 444.999 164.973 442.563 165.298C440.438 165.577 438.333 165.991 436.261 166.537C433.585 167.225 431.134 168.599 429.151 170.523C427.607 172.019 426.39 173.82 425.579 175.812C424.768 177.803 424.38 179.941 424.439 182.091C424.464 182.961 424.471 183.851 424.458 184.754C424.458 185.173 424.452 185.599 424.446 186.025H430.716C430.988 186.024 431.259 186.056 431.523 186.12C432.288 186.303 432.97 186.738 433.458 187.355C433.946 187.972 434.212 188.735 434.213 189.521V219.089C434.639 219.21 435.065 219.331 435.485 219.458C435.619 219.502 435.746 219.54 435.873 219.579C436.019 219.623 436.165 219.668 436.305 219.712C437.596 220.112 438.857 220.536 440.089 220.983H442.162C442.549 220.984 442.922 221.125 443.212 221.379C443.502 221.634 443.689 221.986 443.739 222.369C444.172 222.54 444.591 222.712 445.005 222.884C446.474 223.494 447.866 224.104 449.145 224.695C450.868 225.483 452.401 226.233 453.685 226.888C454.089 227.094 454.536 227.203 454.989 227.206C455.584 227.204 456.163 227.012 456.642 226.659C456.742 226.586 456.837 226.507 456.928 226.424C457.269 226.105 457.526 225.708 457.678 225.267C457.83 224.826 457.871 224.355 457.8 223.894C457.143 218.902 456.952 213.859 457.227 208.83C457.405 204.604 457.787 200.269 458.283 196.08C458.55 193.811 458.849 191.587 459.161 189.445C459.46 187.398 459.778 185.434 460.089 183.578C460.498 181.224 460.362 178.809 459.692 176.516C459.022 174.223 457.835 172.114 456.223 170.351Z" fill="#A3FF20"/>
<path d="M430.156 170.872C429.83 170.732 429.494 170.615 429.151 170.523C427.456 170.067 425.654 170.235 424.073 170.997C422.493 171.759 421.239 173.064 420.541 174.673L416.172 184.754L415.625 186.025H430.715C430.988 186.024 431.259 186.056 431.523 186.12L432.032 184.945L433.965 180.483C434.733 178.703 434.763 176.692 434.049 174.89C433.335 173.088 431.935 171.643 430.156 170.872V170.872Z" fill="#A3FF20"/>
<path d="M443.724 160.335C452.35 160.335 459.343 153.345 459.343 144.724C459.343 136.102 452.35 129.113 443.724 129.113C435.098 129.113 428.105 136.102 428.105 144.724C428.105 153.345 435.098 160.335 443.724 160.335Z" fill="#FFB8B8"/>
<path d="M459.161 189.444L450.245 189.686L449.596 195.947L449.45 197.396L435.485 203.663L434.213 204.235V215.377L435.485 215.015L439.504 213.871H439.523L457.228 208.83L457.431 208.773C458.861 208.36 460.121 207.497 461.021 206.312C461.922 205.127 462.416 203.683 462.429 202.195L462.474 194.803L462.512 189.355L459.161 189.444Z" fill="#FFB8B8"/>
<path d="M462.06 177.063C462.002 176.105 461.754 175.167 461.333 174.305C460.912 173.442 460.325 172.671 459.605 172.035C458.152 170.75 456.248 170.095 454.312 170.214C452.375 170.333 450.566 171.216 449.281 172.668C447.996 174.121 447.341 176.024 447.46 177.959L448.432 193.824C448.459 194.241 448.577 194.648 448.778 195.015C448.979 195.382 449.258 195.7 449.596 195.947C450.134 196.347 450.797 196.543 451.466 196.5L458.283 196.08L460.35 195.953C460.726 195.935 461.095 195.84 461.434 195.675C461.773 195.51 462.075 195.278 462.321 194.993C462.376 194.933 462.427 194.869 462.474 194.803C462.878 194.262 463.076 193.595 463.033 192.921L462.06 177.063Z" fill="#A3FF20"/>
<path d="M436.305 219.712H435.485V219.629C435.065 219.687 434.639 219.744 434.213 219.807V220.983H440.089C438.855 220.538 437.594 220.115 436.305 219.712ZM436.305 219.712H435.485V219.629C435.065 219.687 434.639 219.744 434.213 219.807V220.983H440.089C438.855 220.538 437.594 220.115 436.305 219.712ZM442.162 219.712H435.485V189.521C435.483 188.487 435.145 187.482 434.522 186.657C433.899 185.832 433.025 185.231 432.032 184.944C431.605 184.816 431.161 184.752 430.715 184.754H374.118C372.854 184.755 371.641 185.258 370.747 186.152C369.853 187.045 369.35 188.257 369.349 189.521V220.665C369.349 221.93 369.852 223.142 370.746 224.036C371.64 224.93 372.853 225.432 374.118 225.432H442.162C442.867 225.431 443.546 225.171 444.07 224.7C444.595 224.23 444.927 223.583 445.005 222.884C445.018 222.78 445.024 222.676 445.024 222.572C445.023 221.814 444.721 221.087 444.184 220.551C443.648 220.015 442.921 219.713 442.162 219.712H442.162ZM443.752 222.572C443.752 222.994 443.584 223.398 443.286 223.696C442.988 223.994 442.584 224.161 442.162 224.161H374.118C373.191 224.161 372.301 223.792 371.646 223.137C370.99 222.481 370.621 221.592 370.62 220.665V189.521C370.621 188.594 370.99 187.705 371.646 187.049C372.301 186.394 373.191 186.025 374.118 186.025H430.715C430.988 186.024 431.259 186.056 431.523 186.12C432.288 186.303 432.97 186.738 433.458 187.355C433.946 187.971 434.212 188.734 434.213 189.521V220.983H442.162C442.548 220.984 442.921 221.125 443.212 221.379C443.502 221.634 443.689 221.986 443.739 222.369C443.745 222.439 443.752 222.502 443.752 222.572H443.752ZM436.305 219.712H435.485V219.629C435.065 219.687 434.639 219.744 434.213 219.807V220.983H440.089C438.855 220.538 437.594 220.115 436.305 219.712Z" fill="#3F3D56"/>
<path d="M402.415 208.908C404.522 208.908 406.23 207.2 406.23 205.094C406.23 202.988 404.522 201.28 402.415 201.28C400.307 201.28 398.599 202.988 398.599 205.094C398.599 207.2 400.307 208.908 402.415 208.908Z" fill="#A3FF20"/>
<path d="M440.389 138.531C436.761 141.77 431.897 145.247 427.455 142.874C424.538 141.316 423.239 137.898 423.92 134.664C425.145 128.846 430.177 125.703 435.049 123.162C441.382 119.859 448.37 116.979 455.462 117.838C462.554 118.696 469.482 124.553 469.147 131.685C468.878 137.421 464.192 142.771 465.676 148.318C467.169 153.901 473.948 156.063 479.723 156.347C485.497 156.631 491.854 156.139 496.435 159.664C502.278 164.162 502.185 173.566 498.025 179.653C493.865 185.741 486.84 189.166 479.94 191.77C470.798 195.219 460.749 197.712 451.313 195.176C441.876 192.639 433.615 183.591 434.999 173.922C435.583 169.838 437.733 166.172 439.808 162.605C441.882 159.039 443.969 155.32 444.404 151.217C444.767 147.798 443.681 144.024 441.158 141.822C440.701 141.439 440.378 140.92 440.235 140.342C440.091 139.763 440.135 139.154 440.359 138.602L440.389 138.531Z" fill="#2F2E41"/>
<path d="M0.759383 301H492.517C492.718 301 492.911 300.92 493.053 300.778C493.195 300.636 493.274 300.444 493.274 300.243C493.274 300.043 493.195 299.85 493.053 299.708C492.911 299.566 492.718 299.486 492.517 299.486H0.759383C0.659763 299.486 0.561069 299.506 0.468949 299.543C0.376829 299.581 0.293103 299.637 0.222559 299.707C0.152014 299.778 0.0960418 299.861 0.057852 299.953C0.0196623 300.045 0 300.144 0 300.243C0 300.343 0.0196623 300.441 0.057852 300.533C0.0960418 300.625 0.152014 300.709 0.222559 300.779C0.293103 300.849 0.376829 300.905 0.468949 300.943C0.561069 300.981 0.659763 301 0.759383 301V301Z" fill="#3F3D56"/>
<path d="M25.7129 237.85V239.122C25.7147 241.228 26.5528 243.248 28.0431 244.738C29.5335 246.227 31.5543 247.065 33.662 247.067H90.8953C93.0033 247.066 95.0247 246.229 96.5153 244.739C98.0059 243.249 98.8436 241.229 98.8444 239.122V237.85C98.8484 235.991 98.1951 234.19 97 232.766C96.6022 232.293 96.1521 231.866 95.6582 231.494C95.6582 231.494 64.1926 230.783 64.1926 229.905H33.662C31.5546 229.908 29.5345 230.746 28.0443 232.236C26.5542 233.725 25.7158 235.744 25.7129 237.85V237.85Z" fill="#3F3D56"/>
<path d="M57.8301 300.142H66.0972V246.751H57.8301L57.8301 300.142Z" fill="#3F3D56"/>
<path d="M34.3013 299.852C34.3013 300.744 46.8287 300.197 62.282 300.197C77.7354 300.197 90.2628 300.744 90.2628 299.852C90.2628 298.959 77.7354 291.879 62.282 291.879C46.8287 291.879 34.3013 298.959 34.3013 299.852Z" fill="#3F3D56"/>
<path d="M103.995 293.313H111.792L115.501 263.257L103.994 263.257L103.995 293.313Z" fill="#A0616A"/>
<path d="M126.828 300.548L102.325 300.549L102.325 291.087L117.361 291.086C119.872 291.086 122.28 292.083 124.055 293.857C125.83 295.632 126.828 298.039 126.828 300.548L126.828 300.548Z" fill="#2F2E41"/>
<path d="M116.166 288.964L123.604 286.631L118.14 256.843L107.162 260.287L116.166 288.964Z" fill="#A0616A"/>
<path d="M140.118 289.035L116.739 296.368L113.905 287.34L128.25 282.84C130.646 282.089 133.242 282.319 135.468 283.481C137.693 284.643 139.366 286.641 140.118 289.035L140.118 289.035Z" fill="#2F2E41"/>
<path d="M110.95 275.13L96.6881 237.712C93.4885 238.463 66.6555 244.397 57.6684 234.833C54.5884 231.555 53.9878 226.806 55.883 220.718L61.1278 214.13L61.2908 214.139C63.2739 214.243 109.898 216.855 113.094 230.912C115.789 242.762 120.71 264.856 122.154 271.346C122.301 272.018 122.201 272.721 121.872 273.326C121.544 273.93 121.009 274.397 120.365 274.641L114.629 276.79C114.31 276.91 113.971 276.972 113.63 276.972C113.049 276.972 112.482 276.796 112.004 276.467C111.525 276.138 111.158 275.672 110.95 275.13V275.13Z" fill="#2F2E41"/>
<path d="M102.683 279.58L88.421 242.161C85.2212 242.912 58.3884 248.846 49.4013 239.283C46.3213 236.005 45.7207 231.256 47.6159 225.167L52.8607 218.58L53.0237 218.588C55.0068 218.693 101.631 221.304 104.827 235.361C107.522 247.212 112.443 269.306 113.887 275.795C114.034 276.468 113.933 277.17 113.605 277.775C113.277 278.38 112.742 278.846 112.098 279.09L106.362 281.239C106.043 281.36 105.704 281.421 105.362 281.421C104.782 281.421 104.215 281.245 103.737 280.916C103.258 280.587 102.891 280.121 102.683 279.58V279.58Z" fill="#2F2E41"/>
<path d="M89.8541 206.982C87.7404 206.981 85.663 206.432 83.8255 205.388C81.9879 204.344 80.4531 202.841 79.3712 201.026L74.8418 193.356L85.6076 187.475L90.1789 193.74L121.195 190.474C121.346 190.201 121.516 189.939 121.703 189.689C122.299 188.907 123.052 188.258 123.915 187.785C124.777 187.313 125.73 187.027 126.71 186.947C127.695 186.863 128.686 186.99 129.618 187.32C130.55 187.651 131.4 188.176 132.111 188.862C133.252 189.955 133.989 191.402 134.204 192.967C134.418 194.532 134.098 196.123 133.294 197.483C132.791 198.33 132.114 199.062 131.309 199.63C130.503 200.197 129.586 200.589 128.619 200.778C127.652 200.967 126.655 200.949 125.695 200.727C124.735 200.504 123.832 200.081 123.047 199.486C122.865 199.346 122.69 199.198 122.524 199.041L92.8165 206.611C91.8484 206.858 90.8532 206.982 89.8541 206.982V206.982Z" fill="#A0616A"/>
<path d="M47.4138 227.143C46.9846 226.834 46.6494 226.412 46.4453 225.924C46.2411 225.436 46.1761 224.901 46.2574 224.379C48.0268 212.72 45.9909 196.019 43.9714 184.061C43.558 181.635 43.7188 179.145 44.4411 176.792C45.1633 174.439 46.4269 172.288 48.1305 170.511C49.8341 168.734 51.9305 167.381 54.2516 166.559C56.5728 165.737 59.0542 165.47 61.4971 165.78C63.6225 166.06 65.7279 166.475 67.8009 167.022V167.022C71.2442 167.888 74.29 169.9 76.4376 172.727C78.5851 175.553 79.7066 179.026 79.6177 182.574C79.3157 194.113 81.6599 208.51 82.6818 214.164C82.7515 214.552 82.7404 214.951 82.6492 215.335C82.558 215.719 82.3886 216.08 82.1516 216.395C81.9192 216.708 81.624 216.968 81.285 217.159C80.946 217.351 80.5707 217.47 80.1831 217.508C68.8585 218.663 56.6461 224.183 50.3744 227.37C49.9713 227.578 49.5246 227.687 49.071 227.688C48.4748 227.687 47.8945 227.495 47.4138 227.143Z" fill="#CCCCCC"/>
<path d="M77.9835 197.071C77.6335 196.934 77.3143 196.729 77.0442 196.467C76.7742 196.205 76.5588 195.893 76.4104 195.548L70.0948 180.965C69.7124 180.084 69.5075 179.137 69.4917 178.176C69.4759 177.216 69.6497 176.262 70.0029 175.369C70.3562 174.476 70.8821 173.661 71.5506 172.971C72.2191 172.281 73.0171 171.73 73.8989 171.348C74.7807 170.967 75.7291 170.763 76.6898 170.748C77.6506 170.733 78.6049 170.907 79.4981 171.261C80.3914 171.615 81.2061 172.141 81.8958 172.81C82.5854 173.479 83.1365 174.277 83.5174 175.159L89.8332 189.741C90.1336 190.437 90.1456 191.224 89.8664 191.929C89.5872 192.634 89.0397 193.2 88.3439 193.502L80.1736 197.037C79.829 197.187 79.458 197.267 79.082 197.273C78.7061 197.279 78.3327 197.211 77.9835 197.071H77.9835Z" fill="#CCCCCC"/>
<path d="M60.3348 160.819C68.961 160.819 75.9538 153.83 75.9538 145.208C75.9538 136.586 68.961 129.597 60.3348 129.597C51.7087 129.597 44.7158 136.586 44.7158 145.208C44.7158 153.83 51.7087 160.819 60.3348 160.819Z" fill="#A0616A"/>
<path d="M50.896 159.077C50.6747 159.332 50.4045 159.541 50.1013 159.69C49.7981 159.839 49.468 159.926 49.1307 159.945C48.7933 159.964 48.4555 159.916 48.1372 159.803C47.8189 159.689 47.5265 159.513 47.2775 159.285C43.7947 156.467 41.0325 152.862 39.2189 148.766C37.1883 143.929 36.8907 138.025 39.2017 133.491C41.1553 129.658 44.6621 127.218 48.1631 125.223C49.5052 124.378 50.976 123.757 52.5178 123.384C53.2966 123.207 54.1037 123.195 54.8873 123.349C55.6708 123.503 56.4134 123.82 57.0672 124.278C57.761 124.805 58.2979 125.512 58.6204 126.321C58.9428 127.13 59.0386 128.012 58.8974 128.872C60.4989 126.763 62.6578 125.144 65.1308 124.196C66.6482 123.543 68.3435 123.43 69.9345 123.874C72.1828 124.624 73.847 126.894 74.7731 129.332C75.522 131.198 75.7964 133.221 75.5715 135.22C75.4734 136.174 75.1822 137.098 74.7155 137.937C74.2488 138.775 73.6163 139.509 72.8566 140.096C71.0227 141.36 68.66 141.232 66.5272 140.672C64.3944 140.112 62.3245 139.163 60.1544 138.899C57.9844 138.634 55.5794 139.208 54.2865 141.142C53.376 142.505 53.1614 144.299 52.9756 146.01L52.0093 154.908C51.9411 156.181 51.6667 157.434 51.1969 158.619C51.1174 158.784 51.0162 158.939 50.896 159.077V159.077Z" fill="#2F2E41"/>
<path d="M107.39 255.225H82.0338C81.6229 255.227 81.2172 255.134 80.8474 254.955C80.4777 254.776 80.1537 254.515 79.9001 254.192C79.641 253.864 79.4601 253.482 79.3711 253.074C79.2822 252.666 79.2876 252.243 79.3869 251.837C81.7587 241.907 81.7586 231.559 79.3867 221.63C79.2875 221.224 79.2821 220.801 79.3711 220.393C79.4601 219.985 79.641 219.603 79.9001 219.275C80.1537 218.952 80.4777 218.691 80.8474 218.512C81.2172 218.333 81.6229 218.24 82.0338 218.241H107.39C108.038 218.243 108.664 218.474 109.158 218.894C109.651 219.313 109.979 219.894 110.084 220.533C111.738 231.27 111.738 242.197 110.084 252.933C109.979 253.572 109.651 254.153 109.158 254.573C108.664 254.993 108.038 255.224 107.39 255.225V255.225Z" fill="#CCCCCC"/>
<path d="M87.9292 232.019V231.274C87.9298 230.769 88.1309 230.284 88.4886 229.927C88.8462 229.569 89.3312 229.368 89.837 229.368H103.143C103.649 229.368 104.134 229.569 104.491 229.927C104.849 230.284 105.05 230.769 105.051 231.274V232.019C105.05 232.525 104.849 233.009 104.491 233.367C104.134 233.724 103.649 233.925 103.143 233.926H89.837C89.3312 233.925 88.8462 233.724 88.4886 233.367C88.1309 233.009 87.9298 232.525 87.9292 232.019V232.019Z" fill="white"/>
<path d="M87.9292 239.866V239.12C87.9298 238.615 88.1309 238.13 88.4886 237.773C88.8462 237.415 89.3312 237.214 89.837 237.214H103.143C103.649 237.214 104.134 237.415 104.491 237.773C104.849 238.13 105.05 238.615 105.051 239.12V239.866C105.05 240.371 104.849 240.856 104.491 241.213C104.134 241.571 103.649 241.772 103.143 241.772H89.837C89.3312 241.772 88.8462 241.571 88.4886 241.213C88.1309 240.856 87.9298 240.371 87.9292 239.866Z" fill="white"/>
<path d="M96.1087 209.301C95.8453 208.968 95.6614 208.579 95.5709 208.164C95.4805 207.75 95.4859 207.32 95.5868 206.907C97.9977 196.815 97.9977 186.296 95.5866 176.204C95.4858 175.791 95.4805 175.361 95.5709 174.947C95.6614 174.532 95.8453 174.143 96.1087 173.81C96.3665 173.482 96.6958 173.216 97.0717 173.034C97.4475 172.852 97.8599 172.758 98.2775 172.76H124.05C124.708 172.761 125.345 172.996 125.847 173.422C126.348 173.849 126.682 174.44 126.789 175.089C128.47 186.002 128.47 197.109 126.789 208.022C126.682 208.671 126.348 209.262 125.847 209.689C125.345 210.115 124.708 210.35 124.05 210.351H98.2775C97.8598 210.352 97.4475 210.259 97.0716 210.077C96.6958 209.895 96.3665 209.629 96.1087 209.301Z" fill="#A3FF20"/>
<path d="M119.077 186.63H105.5C104.994 186.629 104.509 186.428 104.152 186.071C103.794 185.713 103.593 185.228 103.592 184.723V183.913C103.593 183.408 103.794 182.923 104.152 182.565C104.509 182.208 104.994 182.007 105.5 182.006H119.077C119.582 182.007 120.067 182.208 120.425 182.565C120.783 182.923 120.984 183.408 120.984 183.913V184.723C120.984 185.228 120.783 185.713 120.425 186.071C120.067 186.428 119.582 186.629 119.077 186.63V186.63Z" fill="white"/>
<path d="M119.077 194.605H105.5C104.994 194.604 104.509 194.403 104.152 194.046C103.794 193.688 103.593 193.204 103.592 192.698V191.888C103.593 191.383 103.794 190.898 104.152 190.541C104.509 190.183 104.994 189.982 105.5 189.981H119.077C119.582 189.982 120.067 190.183 120.425 190.541C120.783 190.898 120.984 191.383 120.984 191.888V192.698C120.984 193.204 120.783 193.688 120.425 194.046C120.067 194.403 119.582 194.604 119.077 194.605V194.605Z" fill="white"/>
<path d="M84.2835 223.283C83.3549 222.959 82.505 222.442 81.7891 221.768C81.0732 221.094 80.5074 220.276 80.1284 219.369C80.041 219.157 79.9648 218.941 79.9001 218.721L46.6271 209.255C45.1973 208.843 43.9387 207.98 43.0382 206.796C42.1377 205.612 41.6431 204.169 41.6281 202.681L41.5469 189.841L53.8113 190.169L54.6105 197.882L83.0623 210.649C83.3302 210.489 83.6089 210.348 83.8963 210.227H83.8965C84.9445 209.787 86.0838 209.61 87.2158 209.709C88.3479 209.808 89.4388 210.182 90.3943 210.797C91.3498 211.411 92.1411 212.25 92.7 213.239C93.2589 214.228 93.5686 215.338 93.6023 216.473C93.6359 217.608 93.3926 218.735 92.8932 219.755C92.3939 220.776 91.6536 221.659 90.7362 222.329C89.8188 223 88.7519 223.437 87.6277 223.603C86.5035 223.769 85.3558 223.659 84.2835 223.283V223.283Z" fill="#A0616A"/>
<path d="M41.7381 195.478C41.4883 195.197 41.2967 194.869 41.1744 194.514C41.0522 194.159 41.0017 193.783 41.0259 193.407L42.0014 177.547C42.0588 176.588 42.3049 175.65 42.7256 174.786C43.1462 173.922 43.7332 173.149 44.453 172.512C45.1727 171.875 46.011 171.386 46.92 171.073C47.829 170.76 48.7908 170.629 49.7504 170.688C50.71 170.747 51.6485 170.995 52.5123 171.417C53.376 171.839 54.1481 172.427 54.7843 173.147C55.4204 173.868 55.9082 174.707 56.2198 175.616C56.5313 176.525 56.6604 177.486 56.5997 178.445L55.6244 194.305C55.5769 195.062 55.231 195.769 54.6626 196.271C54.0943 196.773 53.3499 197.03 52.5926 196.984L43.7065 196.438C43.3311 196.416 42.9639 196.32 42.626 196.155C42.2881 195.991 41.9863 195.76 41.7381 195.478H41.7381Z" fill="#CCCCCC"/>
<path d="M184.753 110.288H132.607C131.09 110.286 129.635 109.683 128.562 108.611C127.489 107.538 126.886 106.084 126.884 104.568V47.9989C126.886 46.4823 127.489 45.0283 128.562 43.9558C129.635 42.8834 131.09 42.2802 132.607 42.2784H184.753C186.27 42.2802 187.725 42.8834 188.798 43.9558C189.871 45.0283 190.475 46.4823 190.476 47.9989V104.568C190.475 106.084 189.871 107.538 188.798 108.611C187.725 109.683 186.27 110.286 184.753 110.288V110.288ZM132.607 43.5497C131.427 43.551 130.295 44.0202 129.461 44.8543C128.626 45.6884 128.157 46.8193 128.156 47.9989V104.568C128.157 105.747 128.626 106.878 129.461 107.712C130.295 108.546 131.427 109.016 132.607 109.017H184.753C185.933 109.016 187.065 108.546 187.899 107.712C188.734 106.878 189.203 105.747 189.205 104.568V47.9989C189.203 46.8193 188.734 45.6884 187.899 44.8543C187.065 44.0202 185.933 43.551 184.753 43.5497H132.607Z" fill="#3F3D56"/>
<path d="M280.142 110.288H227.996C226.479 110.286 225.024 109.683 223.951 108.611C222.878 107.538 222.275 106.084 222.273 104.568V47.9989C222.275 46.4823 222.878 45.0283 223.951 43.9558C225.024 42.8834 226.479 42.2802 227.996 42.2784H280.142C281.66 42.2802 283.114 42.8834 284.187 43.9558C285.26 45.0283 285.864 46.4823 285.866 47.9989V104.568C285.864 106.084 285.26 107.538 284.187 108.611C283.114 109.683 281.66 110.286 280.142 110.288V110.288ZM227.996 43.5497C226.816 43.551 225.685 44.0202 224.85 44.8543C224.016 45.6884 223.546 46.8193 223.545 47.9989V104.568C223.546 105.747 224.016 106.878 224.85 107.712C225.685 108.546 226.816 109.016 227.996 109.017H280.142C281.322 109.016 282.454 108.546 283.288 107.712C284.123 106.878 284.592 105.747 284.594 104.568V47.9989C284.592 46.8193 284.123 45.6884 283.288 44.8543C282.454 44.0202 281.322 43.551 280.142 43.5497H227.996Z" fill="#3F3D56"/>
<path d="M143.109 65.7958H138.022C137.263 65.7949 136.536 65.4933 135.999 64.9571C135.463 64.4209 135.161 63.6939 135.16 62.9355V57.8507C135.161 57.0924 135.463 56.3654 135.999 55.8292C136.536 55.2929 137.263 54.9913 138.022 54.9905H143.109C143.868 54.9913 144.595 55.2929 145.132 55.8292C145.668 56.3654 145.97 57.0924 145.971 57.8507V62.9355C145.97 63.6939 145.668 64.4209 145.132 64.9571C144.595 65.4933 143.868 65.7949 143.109 65.7958V65.7958Z" fill="#A3FF20"/>
<path d="M143.109 81.6859H138.022C137.263 81.6851 136.536 81.3834 135.999 80.8472C135.463 80.311 135.161 79.584 135.16 78.8257V73.7408C135.161 72.9825 135.463 72.2555 135.999 71.7193C136.536 71.1831 137.263 70.8815 138.022 70.8806H143.109C143.868 70.8815 144.595 71.1831 145.132 71.7193C145.668 72.2555 145.97 72.9825 145.971 73.7408V78.8257C145.97 79.584 145.668 80.311 145.132 80.8472C144.595 81.3834 143.868 81.6851 143.109 81.6859V81.6859Z" fill="#CCCCCC"/>
<path d="M180.292 62.7048H156.541C156.035 62.7042 155.55 62.5031 155.192 62.1457C154.835 61.7882 154.633 61.3035 154.633 60.7979V59.9882C154.633 59.4827 154.835 58.998 155.192 58.6405C155.55 58.283 156.035 58.082 156.541 58.0814H180.292C180.798 58.082 181.283 58.283 181.64 58.6405C181.998 58.998 182.199 59.4827 182.2 59.9882V60.7979C182.199 61.3035 181.998 61.7882 181.64 62.1457C181.283 62.5031 180.798 62.7042 180.292 62.7048V62.7048Z" fill="#A3FF20"/>
<path d="M238.937 64.7988H233.849C233.091 64.798 232.363 64.4963 231.827 63.9601C231.29 63.4239 230.989 62.6969 230.988 61.9386V56.8537C230.989 56.0954 231.29 55.3684 231.827 54.8322C232.363 54.296 233.091 53.9944 233.849 53.9935H238.937C239.696 53.9944 240.423 54.296 240.959 54.8322C241.496 55.3684 241.798 56.0954 241.799 56.8537V61.9386C241.798 62.6969 241.496 63.4239 240.959 63.9601C240.423 64.4963 239.696 64.798 238.937 64.7988V64.7988Z" fill="#CCCCCC"/>
<path d="M276.119 61.7078H252.368C251.862 61.7073 251.377 61.5062 251.019 61.1487C250.662 60.7912 250.461 60.3065 250.46 59.801V58.9913C250.461 58.4857 250.662 58.0011 251.019 57.6436C251.377 57.2861 251.862 57.085 252.368 57.0845H276.119C276.625 57.085 277.11 57.2861 277.468 57.6436C277.825 58.0011 278.026 58.4857 278.027 58.9913V59.801C278.026 60.3065 277.825 60.7912 277.468 61.1487C277.11 61.5062 276.625 61.7073 276.119 61.7078Z" fill="#CCCCCC"/>
<path d="M276.119 76.9623H232.018C231.512 76.9618 231.027 76.7607 230.67 76.4032C230.312 76.0457 230.111 75.5611 230.11 75.0555V74.2458C230.111 73.7403 230.312 73.2556 230.67 72.8981C231.027 72.5406 231.512 72.3395 232.018 72.339H276.119C276.625 72.3395 277.11 72.5406 277.468 72.8981C277.825 73.2556 278.026 73.7403 278.027 74.2458V75.0555C278.026 75.5611 277.825 76.0457 277.468 76.4032C277.11 76.7607 276.625 76.9618 276.119 76.9623V76.9623Z" fill="#A3FF20"/>
<path d="M276.119 87.7676H232.018C231.512 87.7671 231.027 87.566 230.67 87.2085C230.312 86.8511 230.111 86.3664 230.11 85.8608V85.0511C230.111 84.5456 230.312 84.0609 230.67 83.7034C231.027 83.3459 231.512 83.1448 232.018 83.1443H276.119C276.625 83.1448 277.11 83.3459 277.468 83.7034C277.825 84.0609 278.026 84.5456 278.027 85.0511V85.8608C278.026 86.3664 277.825 86.8511 277.468 87.2085C277.11 87.566 276.625 87.7671 276.119 87.7676V87.7676Z" fill="#CCCCCC"/>
<path d="M276.119 98.5729H232.018C231.512 98.5724 231.027 98.3713 230.67 98.0138C230.312 97.6563 230.111 97.1717 230.11 96.6661V95.8564C230.111 95.3508 230.312 94.8662 230.67 94.5087C231.027 94.1512 231.512 93.9501 232.018 93.9496H276.119C276.625 93.9501 277.11 94.1512 277.468 94.5087C277.825 94.8662 278.026 95.3508 278.027 95.8564V96.6661C278.026 97.1717 277.825 97.6563 277.468 98.0138C277.11 98.3713 276.625 98.5724 276.119 98.5729V98.5729Z" fill="#CCCCCC"/>
<path d="M375.531 110.288H323.385C321.868 110.286 320.413 109.683 319.34 108.611C318.267 107.538 317.663 106.084 317.662 104.568V47.9989C317.663 46.4823 318.267 45.0283 319.34 43.9558C320.413 42.8834 321.868 42.2802 323.385 42.2784H375.531C377.048 42.2802 378.503 42.8834 379.576 43.9558C380.649 45.0283 381.253 46.4823 381.254 47.9989V104.568C381.253 106.084 380.649 107.538 379.576 108.611C378.503 109.683 377.048 110.286 375.531 110.288V110.288ZM323.385 43.5497C322.205 43.551 321.073 44.0202 320.239 44.8543C319.404 45.6884 318.935 46.8193 318.933 47.9989V104.568C318.935 105.747 319.404 106.878 320.239 107.712C321.073 108.546 322.205 109.016 323.385 109.017H375.531C376.711 109.016 377.843 108.546 378.677 107.712C379.512 106.878 379.981 105.747 379.982 104.568V47.9989C379.981 46.8193 379.512 45.6884 378.677 44.8543C377.843 44.0202 376.711 43.551 375.531 43.5497H323.385Z" fill="#3F3D56"/>
<path d="M371.508 61.7078H347.757C347.251 61.7073 346.766 61.5062 346.409 61.1487C346.051 60.7912 345.85 60.3065 345.849 59.801V58.9913C345.85 58.4857 346.051 58.0011 346.409 57.6436C346.766 57.2861 347.251 57.085 347.757 57.0845H371.508C372.014 57.085 372.499 57.2861 372.857 57.6436C373.214 58.0011 373.416 58.4857 373.416 58.9913V59.801C373.416 60.3065 373.214 60.7912 372.857 61.1487C372.499 61.5062 372.014 61.7073 371.508 61.7078V61.7078Z" fill="#CCCCCC"/>
<path d="M371.508 76.9623H327.407C326.901 76.9618 326.417 76.7607 326.059 76.4032C325.701 76.0457 325.5 75.5611 325.5 75.0555V74.2458C325.5 73.7403 325.701 73.2556 326.059 72.8981C326.417 72.5406 326.901 72.3395 327.407 72.339H371.508C372.014 72.3395 372.499 72.5406 372.857 72.8981C373.214 73.2556 373.416 73.7403 373.416 74.2458V75.0555C373.416 75.5611 373.214 76.0457 372.857 76.4032C372.499 76.7607 372.014 76.9618 371.508 76.9623Z" fill="#CCCCCC"/>
<path d="M371.508 87.7676H327.407C326.901 87.7671 326.417 87.566 326.059 87.2085C325.701 86.8511 325.5 86.3664 325.5 85.8608V85.0511C325.5 84.5456 325.701 84.0609 326.059 83.7034C326.417 83.3459 326.901 83.1448 327.407 83.1443H371.508C372.014 83.1448 372.499 83.3459 372.857 83.7034C373.214 84.0609 373.416 84.5456 373.416 85.0511V85.8608C373.416 86.3664 373.214 86.8511 372.857 87.2085C372.499 87.566 372.014 87.7671 371.508 87.7676Z" fill="#CCCCCC"/>
<path d="M371.508 98.5729H327.407C326.901 98.5724 326.417 98.3713 326.059 98.0138C325.701 97.6563 325.5 97.1717 325.5 96.6661V95.8564C325.5 95.3508 325.701 94.8662 326.059 94.5087C326.417 94.1512 326.901 93.9501 327.407 93.9496H371.508C372.014 93.9501 372.499 94.1512 372.857 94.5087C373.214 94.8662 373.416 95.3508 373.416 95.8564V96.6661C373.416 97.1717 373.214 97.6563 372.857 98.0138C372.499 98.3713 372.014 98.5724 371.508 98.5729Z" fill="#CCCCCC"/>
<path d="M180.292 78.5949H156.541C156.035 78.5943 155.55 78.3933 155.192 78.0358C154.835 77.6783 154.633 77.1936 154.633 76.6881V75.8784C154.633 75.3728 154.835 74.8881 155.192 74.5307C155.55 74.1732 156.035 73.9721 156.541 73.9716H180.292C180.798 73.9721 181.283 74.1732 181.64 74.5307C181.998 74.8881 182.199 75.3728 182.2 75.8784V76.6881C182.199 77.1936 181.998 77.6783 181.64 78.0358C181.283 78.3933 180.798 78.5943 180.292 78.5949Z" fill="#CCCCCC"/>
<path d="M143.109 97.576H138.022C137.263 97.5752 136.536 97.2736 135.999 96.7374C135.463 96.2011 135.161 95.4741 135.16 94.7158V89.631C135.161 88.8727 135.463 88.1456 135.999 87.6094C136.536 87.0732 137.263 86.7716 138.022 86.7708H143.109C143.868 86.7716 144.595 87.0732 145.132 87.6094C145.668 88.1456 145.97 88.8727 145.971 89.631V94.7158C145.97 95.4741 145.668 96.2011 145.132 96.7374C144.595 97.2736 143.868 97.5752 143.109 97.576V97.576Z" fill="#CCCCCC"/>
<path d="M180.292 94.485H156.541C156.035 94.4845 155.55 94.2834 155.192 93.9259C154.835 93.5685 154.633 93.0838 154.633 92.5782V91.7685C154.633 91.263 154.835 90.7783 155.192 90.4208C155.55 90.0633 156.035 89.8622 156.541 89.8617H180.292C180.798 89.8622 181.283 90.0633 181.64 90.4208C181.998 90.7783 182.199 91.263 182.2 91.7685V92.5782C182.199 93.0838 181.998 93.5685 181.64 93.9259C181.283 94.2834 180.798 94.4845 180.292 94.485Z" fill="#CCCCCC"/>
<path d="M337.373 58.8041C337.373 58.7895 337.375 58.7753 337.375 58.7606C337.375 58.0094 337.227 57.2655 336.94 56.5715C336.652 55.8774 336.23 55.2468 335.699 54.7156C335.167 54.1844 334.537 53.7631 333.842 53.4756C333.148 53.1881 332.403 53.0402 331.652 53.0402V58.8041H337.373Z" fill="#A3FF20"/>
<path d="M331.016 59.4398V53.6758C329.886 53.6754 328.781 54.0095 327.84 54.6359C326.9 55.2623 326.166 56.153 325.731 57.1957C325.296 58.2384 325.18 59.3864 325.397 60.495C325.614 61.6036 326.155 62.6231 326.951 63.4251C327.747 64.227 328.762 64.7754 329.87 65.0012C330.977 65.227 332.127 65.1201 333.173 64.6938C334.22 64.2676 335.117 63.5412 335.751 62.6061C336.385 61.6711 336.728 60.5693 336.737 59.4398H331.016Z" fill="#CCCCCC"/>
</svg>
