<svg width="607" height="350" viewBox="0 0 607 350" fill="none" xmlns="http://www.w3.org/2000/svg">
<path d="M303.5 350C471.118 350 607 342.17 607 332.512C607 322.854 471.118 315.024 303.5 315.024C135.882 315.024 0 322.854 0 332.512C0 342.17 135.882 350 303.5 350Z" fill="#F2F2F2"/>
<path d="M552.604 0H96.6602V14.5325H552.604V0Z" fill="#F2F2F2"/>
<path d="M108.861 10.8131C110.934 10.8131 112.615 9.1292 112.615 7.052C112.615 4.9748 110.934 3.29089 108.861 3.29089C106.788 3.29089 105.107 4.9748 105.107 7.052C105.107 9.1292 106.788 10.8131 108.861 10.8131Z" fill="#8ED825"/>
<path d="M121.062 10.8131C123.135 10.8131 124.816 9.1292 124.816 7.052C124.816 4.9748 123.135 3.29089 121.062 3.29089C118.988 3.29089 117.308 4.9748 117.308 7.052C117.308 9.1292 118.988 10.8131 121.062 10.8131Z" fill="#8ED825"/>
<path d="M133.263 10.8131C135.336 10.8131 137.017 9.1292 137.017 7.052C137.017 4.9748 135.336 3.29089 133.263 3.29089C131.19 3.29089 129.509 4.9748 129.509 7.052C129.509 9.1292 131.19 10.8131 133.263 10.8131Z" fill="#8ED825"/>
<path d="M96.9829 229.845L96.6597 230.122V328.156H552.603V155.957L547.169 156.37L96.9829 229.845Z" fill="#3F3D56"/>
<path d="M256.887 97.2124H129.564V102.356H256.887V97.2124Z" fill="#3F3D56"/>
<path d="M256.887 108.528H129.564V113.672H256.887V108.528Z" fill="#3F3D56"/>
<path d="M172.69 119.844H129.564V124.987H172.69V119.844Z" fill="#3F3D56"/>
<path d="M516.537 240.009H389.214V245.152H516.537V240.009Z" fill="white"/>
<path d="M516.537 251.324H389.214V256.468H516.537V251.324Z" fill="white"/>
<path d="M432.34 262.64H389.214V267.783H432.34V262.64Z" fill="white"/>
<path d="M310.107 323.414C312.874 323.414 315.116 321.167 315.116 318.396C315.116 315.625 312.874 313.378 310.107 313.378C307.341 313.378 305.099 315.625 305.099 318.396C305.099 321.167 307.341 323.414 310.107 323.414Z" fill="#F2F2F2"/>
<path d="M324.632 323.915C327.398 323.915 329.64 321.669 329.64 318.898C329.64 316.127 327.398 313.88 324.632 313.88C321.866 313.88 319.624 316.127 319.624 318.898C319.624 321.669 321.866 323.915 324.632 323.915Z" fill="#F2F2F2"/>
<path d="M339.156 324.417C341.922 324.417 344.164 322.171 344.164 319.4C344.164 316.628 341.922 314.382 339.156 314.382C336.39 314.382 334.147 316.628 334.147 319.4C334.147 322.171 336.39 324.417 339.156 324.417Z" fill="#F2F2F2"/>
<path d="M324.678 322.912C326.89 322.912 328.684 321.115 328.684 318.898C328.684 316.681 326.89 314.884 324.678 314.884C322.465 314.884 320.671 316.681 320.671 318.898C320.671 321.115 322.465 322.912 324.678 322.912Z" fill="#3F3D56"/>
<path d="M214.676 156.087H171.55V165.944H214.676V156.087Z" fill="#3F3D56"/>
<path d="M471.011 289.474H427.885V299.331H471.011V289.474Z" fill="white"/>
<path opacity="0.3" d="M193.356 190.956C209.832 190.956 223.188 177.575 223.188 161.068C223.188 144.562 209.832 131.181 193.356 131.181C176.88 131.181 163.524 144.562 163.524 161.068C163.524 177.575 176.88 190.956 193.356 190.956Z" fill="#8ED825"/>
<path opacity="0.3" d="M193.356 180.993C204.34 180.993 213.244 172.072 213.244 161.068C213.244 150.064 204.34 141.143 193.356 141.143C182.372 141.143 173.468 150.064 173.468 161.068C173.468 172.072 182.372 180.993 193.356 180.993Z" fill="#8ED825"/>
<path d="M193.356 174.905C200.984 174.905 207.167 168.71 207.167 161.068C207.167 153.426 200.984 147.231 193.356 147.231C185.728 147.231 179.545 153.426 179.545 161.068C179.545 168.71 185.728 174.905 193.356 174.905Z" fill="#8ED825"/>
<path opacity="0.3" d="M444.374 116.885C460.849 116.885 474.206 103.504 474.206 86.9978C474.206 70.4913 460.849 57.1102 444.374 57.1102C427.898 57.1102 414.542 70.4913 414.542 86.9978C414.542 103.504 427.898 116.885 444.374 116.885Z" fill="#8ED825"/>
<path opacity="0.3" d="M444.374 106.923C455.358 106.923 464.262 98.0021 464.262 86.9978C464.262 75.9935 455.358 67.0728 444.374 67.0728C433.39 67.0728 424.486 75.9935 424.486 86.9978C424.486 98.0021 433.39 106.923 444.374 106.923Z" fill="#8ED825"/>
<path d="M444.374 100.835C452.001 100.835 458.185 94.6397 458.185 86.9978C458.185 79.356 452.001 73.161 444.374 73.161C436.746 73.161 430.562 79.356 430.562 86.9978C430.562 94.6397 436.746 100.835 444.374 100.835Z" fill="#8ED825"/>
<path opacity="0.3" d="M449.691 324.343C466.167 324.343 479.523 310.962 479.523 294.455C479.523 277.949 466.167 264.568 449.691 264.568C433.215 264.568 419.859 277.949 419.859 294.455C419.859 310.962 433.215 324.343 449.691 324.343Z" fill="#8ED825"/>
<path opacity="0.3" d="M449.691 314.38C460.675 314.38 469.579 305.46 469.579 294.455C469.579 283.451 460.675 274.53 449.691 274.53C438.707 274.53 429.803 283.451 429.803 294.455C429.803 305.46 438.707 314.38 449.691 314.38Z" fill="#8ED825"/>
<path d="M449.691 308.292C457.319 308.292 463.502 302.097 463.502 294.455C463.502 286.813 457.319 280.618 449.691 280.618C442.063 280.618 435.88 286.813 435.88 294.455C435.88 302.097 442.063 308.292 449.691 308.292Z" fill="#8ED825"/>
<path d="M49.6771 60.5285L61.9556 61.0055L62.5677 45.1896L50.2893 44.7125L49.6771 60.5285Z" fill="#8ED825"/>
<path d="M105.677 100.103C105.677 100.103 122.681 91.9642 122.409 98.9935C122.137 106.023 105.269 110.647 105.269 110.647L105.677 100.103Z" fill="#FFB9B9"/>
<path d="M96.3483 159.58C96.3483 159.58 104.37 179.251 107.334 193.446C110.298 207.641 114.812 227.176 109.006 241.03C103.2 254.884 86.6917 295.602 86.5216 299.996C86.3516 304.389 87.9356 308.85 84.4275 308.714C80.9193 308.578 61.8287 302.556 61.0537 299.886C60.2787 297.216 67.567 290.459 67.567 290.459L85.5642 233.96L66.7869 197.151L53.2429 252.064L50.5901 320.599C50.5901 320.599 37.5706 316.574 35.6805 320.02C35.6805 320.02 29.8474 311.874 29.1064 308.325C28.3654 304.776 31.8612 237.153 31.8612 237.153C31.8612 237.153 19.9105 160.13 29.5579 160.505C39.2052 160.88 76.9928 137.708 96.3483 159.58Z" fill="#2F2E41"/>
<path d="M84.5635 305.199C84.5635 305.199 93.4627 324.905 94.3057 325.818C95.1487 326.73 100.948 335.755 96.5627 335.585C92.1775 335.415 81.8232 330.613 74.202 323.277C66.5807 315.941 56.5325 303.23 57.4435 302.386C58.3546 301.541 64.5958 299.144 64.5958 299.144L84.5635 305.199Z" fill="#2F2E41"/>
<path d="M49.0061 316.138C49.0061 316.138 49.543 324.959 51.161 328.541C52.779 332.124 52.575 337.396 48.1898 337.226C43.8047 337.055 32.4713 334.855 32.4713 334.855C32.4713 334.855 31.7983 329.549 32.7093 328.704C33.6204 327.86 37.5026 318.331 35.8506 315.627C34.1985 312.923 49.0061 316.138 49.0061 316.138Z" fill="#2F2E41"/>
<path d="M42.5187 29.8909C42.5187 29.8909 33.1702 44.4874 29.5261 47.8658C25.8819 51.2441 36.1342 58.6823 36.1342 58.6823L54.4839 61.1551C54.4839 61.1551 54.253 44.4265 55.1981 42.7032C56.1431 40.98 42.5187 29.8909 42.5187 29.8909Z" fill="#FFB9B9"/>
<path d="M58.4682 48.9902C58.4682 48.9902 54.688 55.8832 51.1799 55.7469C47.6718 55.6106 29.5262 47.8658 28.7511 45.1957C27.9761 42.5256 22.7407 64.3218 22.7407 64.3218L67.1417 142.605L77.9721 135.106L72.7244 89.1433L68.4145 64.3363L58.4682 48.9902Z" fill="#8ED825"/>
<path d="M27.1134 119.051C28.8846 122.763 29.9908 126.634 29.8374 130.596C29.8306 130.772 29.8238 130.948 29.8082 131.123C29.388 139.256 26.3977 148.661 25.3249 155.501C24.5465 160.407 24.768 163.988 27.634 164.83C34.5822 166.86 26.6209 168.311 53.5028 177.275C80.3847 186.239 85.076 178.502 85.144 176.744C85.212 174.987 81.337 161.637 82.248 160.792C83.1591 159.948 94.9954 171.847 98.5716 170.226C102.148 168.605 98.9797 159.682 98.9797 159.682C98.9797 159.682 90.9235 140.89 91.0936 136.496C91.2636 132.103 78.8904 111.383 78.8904 111.383L70.4746 56.4965C70.4746 56.4965 67.2385 49.331 62.8874 48.2819C58.5362 47.2329 54.9261 49.7326 54.9261 49.7326L62.2072 65.8552L69.8892 94.3131L68.6041 104.823C68.6041 104.823 59.6709 85.9963 53.8038 78.7285C47.9366 71.4607 35.4273 54.255 35.4273 54.255C35.4273 54.255 32.5069 44.3825 34.7115 41.4322C36.9166 38.4731 25.5151 38.0302 20.6538 50.1611C18.0773 56.5905 13.8942 66.1782 11.2737 75.105C8.93865 83.0133 7.83563 90.4063 10.149 94.6322C13.6848 101.088 22.5791 109.573 27.1134 119.051Z" fill="#575A89"/>
<path opacity="0.1" d="M10.1485 94.6321C13.6844 101.088 22.5786 109.573 27.113 119.051C28.2973 114.776 29.7421 110.353 29.7421 110.353C29.7421 110.353 35.2836 80.6489 18.8921 72.9722C16.1761 72.7091 13.4597 73.4695 11.2733 75.105C8.93816 83.0133 7.83514 90.4063 10.1485 94.6321Z" fill="black"/>
<path d="M75.2194 92.7603L89.1159 96.8201L108.411 97.5697L110.396 114.366L78.6863 116.655C78.6863 116.655 70.7663 94.3472 75.2194 92.7603Z" fill="#575A89"/>
<path d="M52.559 149.236C52.559 149.236 71.1497 152.326 66.9066 157.931C62.6635 163.536 46.1943 157.644 46.1943 157.644L52.559 149.236Z" fill="#FFB9B9"/>
<path opacity="0.1" d="M29.808 131.123C29.3878 139.256 26.3975 148.661 25.3247 155.501C31.247 161.116 36.8788 166.069 39.0012 166.152C43.3863 166.322 50.4366 165.716 53.0337 166.697C55.6308 167.678 57.154 151.017 57.154 151.017C57.154 151.017 55.604 145.677 48.6898 142.769C44.0228 140.801 35.077 135.464 29.808 131.123Z" fill="black"/>
<path d="M19.0965 67.7003C19.0965 67.7003 4.25495 65.3637 5.05675 90.0344C5.85854 114.705 3.4923 130.453 9.46148 135.085C15.4307 139.717 34.8202 160.709 39.2053 160.88C43.5905 161.05 50.6408 160.444 53.2379 161.425C55.8349 162.406 57.3582 145.745 57.3582 145.745C57.3582 145.745 55.8081 140.405 48.8939 137.497C41.9797 134.588 25.6902 124.275 25.8262 120.761C25.9623 117.246 29.9465 105.081 29.9465 105.081C29.9465 105.081 35.488 75.3769 19.0965 67.7003Z" fill="#575A89"/>
<path d="M55.6061 51.5044C66.2703 51.5044 74.9153 42.8433 74.9153 32.1593C74.9153 21.4753 66.2703 12.8142 55.6061 12.8142C44.9419 12.8142 36.2969 21.4753 36.2969 32.1593C36.2969 42.8433 44.9419 51.5044 55.6061 51.5044Z" fill="#FFB9B9"/>
<path d="M68.6077 4.43217C69.0735 4.83419 69.6312 5.1146 70.2313 5.24842C70.5325 5.30223 70.8428 5.23445 71.0943 5.05988C71.3459 4.88531 71.5183 4.61814 71.5739 4.31668C72.0157 5.23456 72.5141 6.21284 73.4161 6.68382C74.318 7.15481 75.7128 6.75988 75.8428 5.74921C75.9745 6.51658 76.3133 7.2332 76.8226 7.82136C77.3822 8.35593 78.3971 8.49085 78.8857 7.89045C78.4907 10.0531 78.7345 12.2772 78.6104 14.4723C78.4864 16.6673 77.9021 18.9944 76.2468 20.4378C73.8327 22.5429 70.2024 22.0233 67.0269 21.6245C66.5466 21.5236 66.0484 21.5509 65.582 21.7037C64.393 22.2112 64.4469 23.8695 64.4309 25.1643C64.3339 27.436 63.4364 29.5999 61.8979 31.2715C60.3593 32.9432 58.2792 34.0145 56.0269 34.2952C54.7665 34.4901 53.4804 34.1756 52.4513 33.4209C51.5496 32.6552 51.0891 31.4073 50.056 30.8322C48.3754 29.8966 46.3371 31.261 45.1084 32.7425C43.8797 34.224 42.6687 36.0464 40.7652 36.3176C38.2478 36.6762 36.3304 34.1059 35.3897 31.7391C34.0918 28.422 33.47 24.878 33.561 21.3162C33.6519 17.7545 34.4537 14.247 35.9191 11.0006C41.1756 -0.478986 59.1319 -2.29472 68.6077 4.43217Z" fill="#2F2E41"/>
<path d="M532.128 312.031C538.929 323.65 552.644 328.25 552.644 328.25C552.644 328.25 555.334 314.012 548.533 302.394C541.733 290.775 528.017 286.175 528.017 286.175C528.017 286.175 525.328 300.412 532.128 312.031Z" fill="#F2F2F2"/>
<path d="M536.372 307.976C548.132 314.502 553.059 328.126 553.059 328.126C553.059 328.126 538.918 331.169 527.158 324.643C515.397 318.118 510.47 304.494 510.47 304.494C510.47 304.494 524.611 301.45 536.372 307.976Z" fill="#8ED825"/>
</svg>
